<svg width="15" height="15" viewBox="0 0 15 15" fill="none" xmlns="http://www.w3.org/2000/svg"><path d="M0 5.342c0-1.87 0-2.805.364-3.52A3.34 3.34 0 0 1 1.823.365C2.537 0 3.472 0 5.342 0h4.076c1.87 0 2.805 0 3.52.364a3.34 3.34 0 0 1 1.458 1.459c.364.714.364 1.649.364 3.519v4.076c0 1.87 0 2.805-.364 3.52a3.34 3.34 0 0 1-1.459 1.458c-.714.364-1.649.364-3.519.364H5.342c-1.87 0-2.805 0-3.52-.364a3.34 3.34 0 0 1-1.458-1.459C0 12.223 0 11.288 0 9.418V5.342z" fill="#00005B"/><path d="M3.163 10.435V3.8c0-.046.018-.071.062-.071.637-.001 1.274-.04 1.912-.04 1.034 0 2.155.36 2.547 1.464.093.27.142.548.142.838 0 .555-.123 1.013-.37 1.374-.69 1.008-1.884.993-2.955.993v2.069c.01.06-.041.09-.091.09H3.236c-.05 0-.074-.027-.074-.085zm1.345-5.462V7.14c.424.032.868.035 1.276-.103.45-.133.697-.53.697-1.006.014-.405-.203-.794-.572-.94-.403-.171-.965-.182-1.4-.117z" fill="#9999FF"/><path d="M8.662 5.383h1.083c.06 0 .113.044.129.104.08.184.09.406.09.605.185-.226.409-.414.66-.555.269-.16.574-.24.883-.234.051-.008.097.04.09.093v1.257c0 .048-.034.072-.1.072-.458-.033-1.172.08-1.504.457v3.266c0 .063-.027.094-.08.094H8.752c-.057.009-.108-.045-.1-.104V6.891c0-.474.01-.963-.06-1.434-.01-.044.03-.084.07-.073z" fill="#9999FF"/></svg>