<svg width="16" height="15" viewBox="0 0 16 15" fill="none" xmlns="http://www.w3.org/2000/svg"><path d="M.62 5.462c0-1.87 0-2.805.364-3.52A3.34 3.34 0 0 1 2.443.485C3.157.12 4.092.12 5.962.12h4.076c1.87 0 2.805 0 3.52.364a3.34 3.34 0 0 1 1.458 1.459c.364.714.364 1.649.364 3.519v4.076c0 1.87 0 2.805-.364 3.52a3.34 3.34 0 0 1-1.459 1.458c-.714.364-1.649.364-3.519.364H5.962c-1.87 0-2.805 0-3.52-.364a3.34 3.34 0 0 1-1.458-1.459C.62 12.343.62 11.408.62 9.538V5.462z" fill="#001E36"/><path d="M3.783 10.935v-6.49c0-.045.018-.07.061-.07.636 0 1.271-.038 1.907-.038 1.032 0 2.15.353 2.54 1.432.093.264.142.535.142.82 0 .541-.123.99-.369 1.343-.687.986-1.878.97-2.946.97v2.026c.009.059-.042.087-.092.087H3.857c-.05 0-.074-.025-.074-.082zm1.34-5.343v2.12c.424.03.867.034 1.274-.101.449-.129.695-.517.695-.983.012-.397-.204-.778-.572-.921-.402-.167-.963-.177-1.396-.114z" fill="#31A8FF"/><path d="M12.268 7.293a2.275 2.275 0 0 0-.59-.213c-.262-.062-1.3-.28-1.301.264.01.303.49.451.703.538.746.256 1.59.714 1.574 1.635.023 1.146-1.088 1.604-2.04 1.605-.495.005-1.011-.072-1.465-.285a.134.134 0 0 1-.07-.122V9.62c-.005-.045.042-.084.08-.052.443.269.97.4 1.484.406.227 0 .677-.022.674-.355 0-.321-.538-.469-.753-.55a3.606 3.606 0 0 1-.876-.457 1.425 1.425 0 0 1-.61-1.178c-.002-1.08 1.02-1.563 1.94-1.564.43-.002.893.03 1.294.204.057.017.07.078.07.132v1.026c.003.064-.068.085-.116.06z" fill="#31A8FF"/></svg>