<svg width="18" height="19" viewBox="0 0 18 19" fill="none" xmlns="http://www.w3.org/2000/svg"><path d="M3.682 3.867c.55.448.757.414 1.793.344l9.758-.584c.207 0 .035-.207-.034-.241l-1.623-1.172c-.31-.24-.724-.517-1.517-.448l-9.448.69c-.344.033-.414.206-.277.344l1.347 1.067zm.585 2.274V16.41c0 .55.276.757.897.722l10.724-.62c.62-.034.69-.414.69-.862V5.452c0-.448-.172-.69-.552-.655l-11.207.655c-.415.034-.553.242-.553.69zm10.587.552c.069.31 0 .62-.31.655l-.517.104v7.58c-.45.241-.863.38-1.207.38-.553 0-.69-.173-1.104-.69l-3.38-5.306v5.134l1.07.242s0 .62-.863.62l-2.38.137c-.068-.137 0-.482.242-.55l.62-.172V8.036l-.86-.07c-.07-.31.103-.757.585-.791l2.552-.173 3.518 5.375V7.622l-.897-.103c-.069-.38.207-.656.552-.69l2.38-.138zM1.82 1.524 11.646.8c1.207-.103 1.517-.034 2.276.517l3.137 2.205c.517.38.69.482.69.896v12.094c0 .758-.275 1.207-1.24 1.274l-11.415.69c-.724.035-1.07-.069-1.449-.552l-2.31-2.997c-.414-.552-.586-.965-.586-1.448V2.73c0-.62.276-1.138 1.069-1.206z" fill="black"/></svg>