<svg width="20" height="21" viewBox="0 0 20 21" fill="none" xmlns="http://www.w3.org/2000/svg"><g clip-path="url(#clip0_0_101)"><path d="M10 20.482c5.523 0 10-4.477 10-10s-4.477-10-10-10-10 4.477-10 10 4.477 10 10 10z" fill="#FF4A00"/><path d="M11.25 10.484c0 .36-.065.718-.192 1.055a2.992 2.992 0 0 1-1.056.192h-.004c-.36 0-.718-.065-1.055-.192a2.99 2.99 0 0 1-.193-1.056v-.004c0-.36.065-.717.192-1.055a2.99 2.99 0 0 1 1.056-.193h.004c.36 0 .719.065 1.056.192.127.338.192.695.192 1.055v.004zm3.68-.835h-2.918l2.064-2.065a5.03 5.03 0 0 0-1.179-1.178L10.833 8.47V5.552a5.03 5.03 0 0 0-.83-.07h-.006c-.278 0-.556.024-.83.07V8.47L7.103 6.408a5.027 5.027 0 0 0-1.178 1.178l2.063 2.064H5.07c0-.001-.07.547-.07.83v.004c0 .279.023.557.07.832h2.918l-2.064 2.063a5.03 5.03 0 0 0 1.179 1.178l2.064-2.064v2.919c.274.046.551.07.83.07h.007c.278 0 .555-.024.83-.07v-2.92l2.063 2.065a5.038 5.038 0 0 0 1.178-1.179l-2.063-2.064h2.918c.046-.275.07-.552.07-.83v-.007c0-.28-.024-.557-.07-.831z" fill="white"/></g><defs><clipPath id="clip0_0_101"><rect width="20" height="20" fill="white" transform="translate(0 0.482216)"/></clipPath></defs></svg>