<svg width="15" height="15" viewBox="0 0 15 15" fill="none" xmlns="http://www.w3.org/2000/svg"><path d="M.24 5.342c0-1.87 0-2.805.364-3.52A3.34 3.34 0 0 1 2.063.365C2.777 0 3.712 0 5.582 0h4.076c1.87 0 2.805 0 3.52.364a3.34 3.34 0 0 1 1.458 1.459C15 2.537 15 3.472 15 5.342v4.076c0 1.87 0 2.805-.364 3.52a3.34 3.34 0 0 1-1.459 1.458c-.714.364-1.649.364-3.519.364H5.582c-1.87 0-2.805 0-3.52-.364a3.34 3.34 0 0 1-1.458-1.459C.24 12.223.24 11.288.24 9.418V5.342z" fill="#330000"/><path d="M7.393 9.276H5.105l-.465 1.483a.118.118 0 0 1-.119.09H3.364c-.066 0-.09-.037-.07-.112l1.98-5.85c.02-.06.04-.13.06-.208a2.23 2.23 0 0 0 .04-.41c-.006-.042.03-.078.07-.072h1.573c.047 0 .073.017.08.05l2.247 6.5c.02.068 0 .102-.06.102H7.998a.093.093 0 0 1-.1-.071l-.504-1.504zm-1.931-1.28h1.564c-.257-.878-.547-1.745-.782-2.63-.254.887-.53 1.77-.782 2.63z" fill="#FF9A00"/><path d="M10.68 5.274a.703.703 0 0 1-.545-.223.808.808 0 0 1-.208-.578.763.763 0 0 1 .223-.563.762.762 0 0 1 .55-.22c.237 0 .424.073.56.219a.787.787 0 0 1 .202.562.814.814 0 0 1-.213.58.76.76 0 0 1-.57.222zm-.683 5.474V5.894c0-.06.026-.091.079-.091h1.218c.052 0 .079.03.079.09v4.855c0 .068-.026.102-.08.102h-1.207c-.06 0-.09-.034-.09-.102z" fill="#FF9A00"/></svg>