<svg width="11" height="15" viewBox="0 0 11 15" fill="none" xmlns="http://www.w3.org/2000/svg"><path fill-rule="evenodd" clip-rule="evenodd" d="M5.62 7.5a2.5 2.5 0 1 1 5 0 2.5 2.5 0 0 1-5 0z" fill="#1ABCFE"/><path fill-rule="evenodd" clip-rule="evenodd" d="M.62 12.5a2.5 2.5 0 0 1 2.5-2.5h2.5v2.5a2.5 2.5 0 0 1-5 0z" fill="#0ACF83"/><path fill-rule="evenodd" clip-rule="evenodd" d="M5.62 0v5h2.5a2.5 2.5 0 0 0 0-5h-2.5z" fill="#FF7262"/><path fill-rule="evenodd" clip-rule="evenodd" d="M.62 2.5A2.5 2.5 0 0 0 3.12 5h2.5V0h-2.5a2.5 2.5 0 0 0-2.5 2.5z" fill="#F24E1E"/><path fill-rule="evenodd" clip-rule="evenodd" d="M.62 7.5a2.5 2.5 0 0 0 2.5 2.5h2.5V5h-2.5a2.5 2.5 0 0 0-2.5 2.5z" fill="#A259FF"/></svg>