<svg width="17" height="18" viewBox="0 0 17 18" fill="none" xmlns="http://www.w3.org/2000/svg"><path d="M1.125 8.768c0 2.923 1.7 5.44 4.158 6.637L1.765 5.767a7.35 7.35 0 0 0-.64 3zM8.5 16.143c.857 0 1.68-.15 2.452-.418l-.052-.098-2.27-6.212-2.21 6.428c.655.196 1.354.3 2.08.3zM9.513 5.31l2.668 7.93.74-2.458c.314-1.02.556-1.752.556-2.387 0-.915-.327-1.543-.602-2.027-.38-.614-.725-1.13-.725-1.732-.001-.68.509-1.308 1.24-1.308h.092A7.35 7.35 0 0 0 8.5 1.393a7.37 7.37 0 0 0-6.16 3.321l.472.013c.771 0 1.961-.098 1.961-.098.405-.02.451.561.052.607 0 0-.398.053-.85.072L6.67 13.3l1.614-4.84-1.15-3.15a13.148 13.148 0 0 1-.772-.066c-.399-.026-.353-.634.046-.615 0 0 1.216.097 1.942.097.771 0 1.961-.098 1.961-.098.4-.02.452.561.053.607 0 0-.398.046-.85.072zm2.694 9.833a7.376 7.376 0 0 0 2.766-9.912 6.964 6.964 0 0 1-.51 3.4l-2.256 6.513zM8.5 17.268a8.5 8.5 0 1 1 0-17 8.5 8.5 0 0 1 0 17z" fill="#126FC2"/></svg>