<svg width="18" height="19" viewBox="0 0 18 19" fill="none" xmlns="http://www.w3.org/2000/svg"><path fill-rule="evenodd" clip-rule="evenodd" d="M2 .482a2 2 0 0 0-2 2v14a2 2 0 0 0 2 2h14a2 2 0 0 0 2-2v-14a2 2 0 0 0-2-2H2z" fill="white"/><path fill-rule="evenodd" clip-rule="evenodd" d="M2 .482a2 2 0 0 0-2 2v14a2 2 0 0 0 2 2h14a2 2 0 0 0 2-2v-14a2 2 0 0 0-2-2H2zm10.4 7.343-1.051 3.182a2237.06 2237.06 0 0 0-.744-5.525c-1.658 0-2.544 1.137-3.012 2.336L6.31 11.014c-.006-.229-.18-3.161-.18-3.161-.1-1.47-1.5-2.365-2.63-2.365l1.37 7.994c1.737-.007 2.673-1.137 3.163-2.336 0 0 1.045-2.6 1.089-2.718.007.111.75 5.054.75 5.054 1.744 0 2.68-1.06 3.185-2.218L15.5 5.489c-1.722 0-2.63 1.13-3.1 2.335z" fill="#4353FF"/></svg>